<svg width="225" height="219" viewBox="0 0 225 219" fill="none" xmlns="http://www.w3.org/2000/svg">
<path d="M59.9062 67.9375L99.0938 66.9062L98.9062 72.0625L88.125 73.1875L83.3438 118.281L75 119.031L71.0625 74.875L60.375 75.9062L59.9062 67.9375ZM109.5 119.125L105.656 81.0625L122.062 78.625L117.094 118.469L109.5 119.125ZM108 72.625C106.625 71.1875 105.938 69.5 105.938 67.5625C105.938 65.5625 106.625 63.875 108 62.5C109.438 61.125 111.125 60.4375 113.062 60.4375C115 60.4375 116.656 61.125 118.031 62.5C119.469 63.875 120.188 65.5625 120.188 67.5625C120.188 69.5 119.469 71.1875 118.031 72.625C116.656 74 115 74.6875 113.062 74.6875C111.125 74.6875 109.438 74 108 72.625ZM145.5 76.5625C157.875 81.5 164.062 87.6875 164.062 95.125C164.062 99 162.969 101.781 160.781 103.469C158.594 105.156 155.094 106 150.281 106C145.531 106 141.938 105.719 139.5 105.156C138.562 107.531 138.062 110.031 138 112.656C140.312 112.969 143.531 113.125 147.656 113.125C151.781 113.125 156.219 112.312 160.969 110.688L163.219 118.094C159.469 119.281 155.281 119.875 150.656 119.875C142.344 119.875 136.25 118.344 132.375 115.281C131.562 111.656 131.156 108.25 131.156 105.062C131.156 98.625 132.562 92.8125 135.375 87.625C138.25 82.375 141.625 78.6875 145.5 76.5625ZM141 101.594C141.625 101.656 143.281 101.688 145.969 101.688C148.719 101.688 151.844 101.312 155.344 100.562C155.469 99.625 155.562 98.6562 155.625 97.6562C155.625 94.5938 154.75 91.6562 153 88.8438C147.875 92.2188 143.875 96.4688 141 101.594Z" fill="#D9C831"/>
<path d="M64.3281 44.5156L62.125 19.0156L71.2656 18.4531L68.5469 44.1406L64.3281 44.5156ZM80.6875 44.5625L79.0469 29.0938L75.4844 29.5625L75.25 25.625L78.625 25.4375L78.0625 20.0938L87.625 18.7812L86.8281 25.0156L90.6719 24.8281L90.5312 27.4062L86.4531 27.9688L84.4844 44.2344L80.6875 44.5625ZM97.5156 19.9531C97.1719 20.2344 96.7031 20.375 96.1094 20.375C95.5156 20.375 95.0312 20.0625 94.6562 19.4375C94.2812 18.7812 94.0938 17.875 94.0938 16.7188C94.0938 15.5625 94.3281 14.7031 94.7969 14.1406C95.2969 13.5469 96.2344 13.25 97.6094 13.25C99.0156 13.25 100.125 13.6562 100.938 14.4688C101.125 15.4062 101.219 16.4844 101.219 17.7031C101.219 21.7656 100.094 24.8125 97.8438 26.8438L94.9375 24.5469C96.4062 23.3281 97.3125 21.8281 97.6562 20.0469L97.5156 19.9531ZM106.141 31.3438C106.141 28.0625 107.875 25.0625 111.344 22.3438L117.625 26.6094C114.781 28.4219 113.359 30.3281 113.359 32.3281C113.359 33.3906 113.938 34.7656 115.094 36.4531C116.281 38.1406 116.875 39.4531 116.875 40.3906C116.875 43.7344 114.562 46.3281 109.938 48.1719L108.25 45.875C110.281 44.7812 111.297 43.5938 111.297 42.3125C111.297 41 110.438 39.3906 108.719 37.4844C108.062 36.7656 107.469 35.8594 106.938 34.7656C106.406 33.6406 106.141 32.5 106.141 31.3438ZM136.562 44.8906C136.125 44.8906 135.812 44.875 135.625 44.8438C134.75 44.25 134.047 43.375 133.516 42.2188C133.016 41.0625 132.766 39.7656 132.766 38.3281C132.766 36.8594 133.375 35.7656 134.594 35.0469C135.844 34.2969 138.125 33.9219 141.438 33.9219C142.656 33.9219 143.953 34 145.328 34.1562L145.234 33.3125C145.141 32.2812 144.656 31.4688 143.781 30.875C142.906 30.2812 141.781 29.9844 140.406 29.9844C139.062 29.9844 137.719 30.4062 136.375 31.25L134.688 25.7188C136.875 24.8125 139.375 24.3594 142.188 24.3594C145 24.3594 147.219 25 148.844 26.2812C150.5 27.5312 151.328 29.5 151.328 32.1875C151.328 32.8125 151.297 33.2969 151.234 33.6406L150.203 44.2344L146.359 44.5625L145.797 39.0312H145.516C144.641 40.875 143.422 42.3125 141.859 43.3438C140.328 44.375 138.562 44.8906 136.562 44.8906ZM145.469 35.7969L143.453 35.75C141.766 35.75 140.375 35.8438 139.281 36.0312C138.938 36.75 138.766 37.3906 138.766 37.9531C138.766 38.5156 138.828 39.0625 138.953 39.5938C139.109 40.0938 139.281 40.4219 139.469 40.5781C142.531 40.1094 144.531 38.5156 145.469 35.7969Z" fill="black"/>
<path d="M151.843 210.719C158.677 228.552 61.374 146.71 112.974 143.11C164.574 139.51 66.5099 225.552 73.3432 210.719" stroke="black" stroke-width="11"/>
</svg>
