<svg width="225" height="185" viewBox="0 0 225 185" fill="none" xmlns="http://www.w3.org/2000/svg">
<path d="M59.3125 67.9062L64.6562 106.625H65.2188L76.8438 70.25L83.0312 72.0312L91 106.906H91.5625L100.469 67.9062L107.312 69.7812L93.7188 119L86.875 120.125L75.0625 94.25L66.3438 119L57.9062 120.125L41.7812 70.0625L59.3125 67.9062ZM118.344 119.688L115.406 85.6875L127.594 84.9375L123.969 119.188L118.344 119.688ZM181.719 68.2812L178.344 119L171.5 120.125L146.562 78.9688H146L146.188 119L138.594 119.375L140.656 69.0312L159.219 67.9062L172.719 106.25H173.281L174.031 68.6562L181.719 68.2812Z" fill="#20A20A"/>
<path d="M84.5469 18.4531L87.6406 32.375H88.0156L93.5 18.5938L96.6406 19.4375L90.0312 34.9531L88.5781 44.1406L84.7344 44.5156L83.5625 35.9844L75.9219 19.5312L84.5469 18.4531ZM112.812 28.3906C114.875 30.7969 115.906 33.5312 115.906 36.5938C115.906 39.6562 115.297 41.8125 114.078 43.0625C112.859 44.3125 110.609 44.9375 107.328 44.9375C104.047 44.9375 101.5 44.1875 99.6875 42.6875C98.4375 36.5625 99.1562 31.5938 101.844 27.7812C103.531 25.4375 105.016 23.9375 106.297 23.2812C108.734 24.5312 110.906 26.2344 112.812 28.3906ZM110.844 40.7656C111.25 39.2031 111.453 37.3906 111.453 35.3281C111.453 33.2656 110.938 31.2344 109.906 29.2344C107.781 30.3594 106.016 32.0781 104.609 34.3906C103.234 36.6719 102.547 38.9844 102.547 41.3281C103.359 41.4844 104.531 41.5625 106.062 41.5625C107.625 41.5625 109.219 41.2969 110.844 40.7656ZM131.328 39.5C132.266 38.2812 132.906 36.9531 133.25 35.5156C133.625 34.0781 133.812 32.8281 133.812 31.7656C133.812 30.7031 133.672 28.625 133.391 25.5312L141.594 24.3125L139.109 44.2344L135.312 44.5625L134.562 37.2969H134.281C132.375 42.3594 129.359 44.8906 125.234 44.8906C124.609 44.8906 124.094 44.7812 123.688 44.5625C122.375 43 121.484 40.3125 121.016 36.5C120.547 32.6875 120.312 28.8906 120.312 25.1094L127.953 24.5469C127.516 29.0156 127.281 32.3594 127.25 34.5781C127.25 36.7969 127.438 39.2031 127.812 41.7969C129.219 41.4844 130.391 40.7188 131.328 39.5Z" fill="black"/>
<path d="M28 129C34.8333 146.833 68.9 182.1 120.5 178.5C172.1 174.9 190.167 143.833 197 129" stroke="black" stroke-width="11"/>
</svg>
