<svg width="225" height="193" viewBox="0 0 225 193" fill="none" xmlns="http://www.w3.org/2000/svg">
<path d="M54.5625 119L26.0625 119.656L22.5 69.0312L40.7812 67.9062L35.25 113.469L54.9375 111.125L54.5625 119ZM85.4062 87.7812C89.5312 92.5938 91.5938 98.0625 91.5938 104.188C91.5938 110.312 90.375 114.625 87.9375 117.125C85.5 119.625 81 120.875 74.4375 120.875C67.875 120.875 62.7812 119.375 59.1562 116.375C56.6562 104.125 58.0938 94.1875 63.4688 86.5625C66.8438 81.875 69.8125 78.875 72.375 77.5625C77.25 80.0625 81.5938 83.4688 85.4062 87.7812ZM81.4688 112.531C82.2812 109.406 82.6875 105.781 82.6875 101.656C82.6875 97.5312 81.6562 93.4688 79.5938 89.4688C75.3438 91.7188 71.8125 95.1562 69 99.7812C66.25 104.344 64.875 108.969 64.875 113.656C66.5 113.969 68.8438 114.125 71.9062 114.125C75.0312 114.125 78.2188 113.594 81.4688 112.531ZM126.656 87.7812C130.781 92.5938 132.844 98.0625 132.844 104.188C132.844 110.312 131.625 114.625 129.188 117.125C126.75 119.625 122.25 120.875 115.688 120.875C109.125 120.875 104.031 119.375 100.406 116.375C97.9062 104.125 99.3438 94.1875 104.719 86.5625C108.094 81.875 111.062 78.875 113.625 77.5625C118.5 80.0625 122.844 83.4688 126.656 87.7812ZM122.719 112.531C123.531 109.406 123.938 105.781 123.938 101.656C123.938 97.5312 122.906 93.4688 120.844 89.4688C116.594 91.7188 113.062 95.1562 110.25 99.7812C107.5 104.344 106.125 108.969 106.125 113.656C107.75 113.969 110.094 114.125 113.156 114.125C116.281 114.125 119.469 113.594 122.719 112.531ZM141.188 93.6875C141.188 87.125 144.656 81.125 151.594 75.6875L164.156 84.2188C158.469 87.8438 155.625 91.6562 155.625 95.6562C155.625 97.7812 156.781 100.531 159.094 103.906C161.469 107.281 162.656 109.906 162.656 111.781C162.656 118.469 158.031 123.656 148.781 127.344L145.406 122.75C149.469 120.562 151.5 118.188 151.5 115.625C151.5 113 149.781 109.781 146.344 105.969C145.031 104.531 143.844 102.719 142.781 100.531C141.719 98.2812 141.188 96 141.188 93.6875ZM186.938 77.5625C199.312 82.5 205.5 88.6875 205.5 96.125C205.5 100 204.406 102.781 202.219 104.469C200.031 106.156 196.531 107 191.719 107C186.969 107 183.375 106.719 180.938 106.156C180 108.531 179.5 111.031 179.438 113.656C181.75 113.969 184.969 114.125 189.094 114.125C193.219 114.125 197.656 113.312 202.406 111.688L204.656 119.094C200.906 120.281 196.719 120.875 192.094 120.875C183.781 120.875 177.688 119.344 173.812 116.281C173 112.656 172.594 109.25 172.594 106.062C172.594 99.625 174 93.8125 176.812 88.625C179.688 83.375 183.062 79.6875 186.938 77.5625ZM182.438 102.594C183.062 102.656 184.719 102.688 187.406 102.688C190.156 102.688 193.281 102.312 196.781 101.562C196.906 100.625 197 99.6562 197.062 98.6562C197.062 95.5938 196.188 92.6562 194.438 89.8438C189.312 93.2188 185.312 97.4688 182.438 102.594Z" fill="#B2150B"/>
<path d="M80.5469 18.4531L83.6406 32.375H84.0156L89.5 18.5938L92.6406 19.4375L86.0312 34.9531L84.5781 44.1406L80.7344 44.5156L79.5625 35.9844L71.9219 19.5312L80.5469 18.4531ZM108.812 28.3906C110.875 30.7969 111.906 33.5312 111.906 36.5938C111.906 39.6562 111.297 41.8125 110.078 43.0625C108.859 44.3125 106.609 44.9375 103.328 44.9375C100.047 44.9375 97.5 44.1875 95.6875 42.6875C94.4375 36.5625 95.1562 31.5938 97.8438 27.7812C99.5312 25.4375 101.016 23.9375 102.297 23.2812C104.734 24.5312 106.906 26.2344 108.812 28.3906ZM106.844 40.7656C107.25 39.2031 107.453 37.3906 107.453 35.3281C107.453 33.2656 106.938 31.2344 105.906 29.2344C103.781 30.3594 102.016 32.0781 100.609 34.3906C99.2344 36.6719 98.5469 38.9844 98.5469 41.3281C99.3594 41.4844 100.531 41.5625 102.062 41.5625C103.625 41.5625 105.219 41.2969 106.844 40.7656ZM127.328 39.5C128.266 38.2812 128.906 36.9531 129.25 35.5156C129.625 34.0781 129.812 32.8281 129.812 31.7656C129.812 30.7031 129.672 28.625 129.391 25.5312L137.594 24.3125L135.109 44.2344L131.312 44.5625L130.562 37.2969H130.281C128.375 42.3594 125.359 44.8906 121.234 44.8906C120.609 44.8906 120.094 44.7812 119.688 44.5625C118.375 43 117.484 40.3125 117.016 36.5C116.547 32.6875 116.312 28.8906 116.312 25.1094L123.953 24.5469C123.516 29.0156 123.281 32.3594 123.25 34.5781C123.25 36.7969 123.438 39.2031 123.812 41.7969C125.219 41.4844 126.391 40.7188 127.328 39.5Z" fill="black"/>
<path d="M31.5 183.638C38.3333 201.472 56.4 138.1 108 134.5C159.6 130.9 183.167 198.472 190 183.638" stroke="black" stroke-width="11"/>
</svg>
