<svg width="45" height="40" viewBox="0 0 45 40" fill="none" xmlns="http://www.w3.org/2000/svg">
<mask id="mask0" mask-type="alpha" maskUnits="userSpaceOnUse" x="0" y="0" width="45" height="40">
<ellipse rx="22" ry="19.7305" transform="matrix(0.999924 -0.0123233 0.0126623 0.99992 22.2481 20)" fill="white"/>
</mask>
<g mask="url(#mask0)">
<path d="M30.9063 -31.6299L22.6919 20.7744L-30.2719 40.8091L30.9063 -31.6299Z" fill="#D25656"/>
<path d="M30.9066 -31.6601L59.7203 50.9026L22.7125 20.7961L30.9066 -31.6601Z" fill="#319FB7"/>
<path d="M22.7129 20.7961L59.7207 50.9024L-30.2458 40.8081L22.7129 20.7961Z" fill="#EAD044"/>
<path d="M18.8438 29.6527C18.8438 28.1553 19.6445 26.7686 21.2461 25.4925L24.1758 27.4457C22.8477 28.279 22.1836 29.1644 22.1836 30.1019C22.1836 30.4925 22.3138 30.9092 22.5742 31.3519C22.8477 31.7816 23.1211 32.2113 23.3945 32.641C23.668 33.0707 23.8047 33.4743 23.8047 33.8519C23.8047 35.3884 22.737 36.5798 20.6016 37.4261L19.8398 36.391C20.3607 36.1045 20.7188 35.8311 20.9141 35.5707C21.1224 35.2972 21.2266 34.9977 21.2266 34.6722C21.2266 34.3467 21.1029 33.9886 20.8555 33.598C20.6081 33.1944 20.3346 32.8298 20.0352 32.5043C19.7357 32.1657 19.4622 31.7425 19.2148 31.2347C18.9674 30.7139 18.8438 30.1865 18.8438 29.6527Z" fill="black"/>
<path d="M30.5625 10.9219C32.0469 10.4401 33.5573 10.1992 35.0938 10.1992C36.6302 10.1992 37.8021 10.4531 38.6094 10.9609C38.7917 11.5339 38.8893 12.0807 38.9023 12.6016C38.9023 13.8255 38.3945 14.8542 37.3789 15.6875C36.3633 16.5208 35.0612 17.1198 33.4727 17.4844L33.082 21.0586L31.4805 21.2148L30.5625 10.9219ZM35.8164 13.0703C35.8164 12.25 35.4844 11.638 34.8203 11.2344C34.638 11.2344 34.4036 11.2734 34.1172 11.3516L33.5703 16.3906C34.2734 16 34.8203 15.4987 35.2109 14.8867C35.6146 14.2747 35.8164 13.6693 35.8164 13.0703Z" fill="black"/>
<path d="M10.9609 15.9375C10.7786 16.0026 10.6289 16.0352 10.5117 16.0352L10.082 20.0586L8.48047 20.2148L7.5625 9.92188C8.1224 9.73958 8.87109 9.57682 9.80859 9.43359C10.7461 9.27734 11.6445 9.19922 12.5039 9.19922C13.8711 9.19922 14.9648 9.45312 15.7852 9.96094C15.9674 10.5339 16.0586 11.0612 16.0586 11.543C16.0586 12.8841 15.2904 13.9974 13.7539 14.8828L16.4297 19.9805L15.3164 20.6055L10.9609 15.9375ZM12.9727 11.9922C12.9727 11.237 12.6406 10.651 11.9766 10.2344C11.7161 10.2344 11.4297 10.293 11.1172 10.4102L10.6289 15.0195C11.3711 14.681 11.944 14.2318 12.3477 13.6719C12.7643 13.112 12.9727 12.5521 12.9727 11.9922Z" fill="black"/>
</g>
</svg>
